<?xml version="1.0" standalone="no"?>
<!DOCTYPE svg PUBLIC "-//W3C//DTD SVG 20010904//EN"
 "http://www.w3.org/TR/2001/REC-SVG-20010904/DTD/svg10.dtd">
<svg version="1.0" xmlns="http://www.w3.org/2000/svg"
 width="289.000000pt" height="111.000000pt" viewBox="0 0 289.000000 111.000000"
 preserveAspectRatio="xMidYMid meet">

<g transform="translate(0.000000,111.000000) scale(0.100000,-0.100000)"
fill="#000000" stroke="none">
<path d="M610 850 c-40 -40 -11 -110 45 -110 14 0 34 9 45 20 11 11 20 31 20
45 0 14 -9 34 -20 45 -11 11 -31 20 -45 20 -14 0 -34 -9 -45 -20z"/>
<path d="M1232 854 c-46 -32 -17 -114 41 -114 22 0 67 43 67 65 0 22 -45 65
-67 65 -10 0 -29 -7 -41 -16z"/>
<path d="M1780 852 c-42 -34 -15 -112 39 -112 57 0 85 82 39 114 -29 21 -51
20 -78 -2z"/>
<path d="M140 776 c0 -4 92 -331 121 -429 l20 -68 71 3 72 3 68 245 c37 135
67 246 68 248 0 1 -26 2 -58 2 l-58 0 -39 -182 c-21 -101 -42 -192 -45 -203
-7 -20 -7 -20 -13 0 -8 25 -87 371 -87 379 0 3 -27 6 -60 6 -33 0 -60 -2 -60
-4z"/>
<path d="M980 673 c-8 -3 -27 -14 -42 -24 -33 -24 -38 -24 -38 1 0 17 -7 20
-50 20 l-50 0 0 -195 0 -195 55 0 55 0 0 133 c1 138 5 153 47 175 28 15 28 15
47 -4 13 -13 16 -42 16 -160 l0 -144 55 0 55 0 0 153 c0 125 -3 158 -18 187
-25 50 -80 72 -132 53z"/>
<path d="M1523 669 c-138 -40 -168 -284 -45 -366 60 -39 162 -39 216 0 18 13
18 15 -5 46 -16 21 -28 29 -39 25 -39 -18 -88 -16 -108 4 -45 45 -36 176 15
209 23 16 29 16 68 1 l43 -15 23 30 c21 29 21 31 3 44 -41 30 -112 39 -171 22z"/>
<path d="M2418 658 c-56 -32 -73 -89 -44 -146 16 -31 34 -42 119 -72 48 -18
57 -25 57 -45 0 -46 -64 -56 -132 -21 -26 14 -29 13 -54 -16 l-26 -31 38 -23
c78 -47 200 -40 256 16 23 24 28 37 28 80 0 64 -20 84 -117 120 -59 22 -68 29
-68 50 0 23 4 25 45 24 25 0 57 -4 72 -8 23 -7 29 -4 43 23 l16 32 -43 19
c-59 27 -142 26 -190 -2z"/>
<path d="M600 475 l0 -195 55 0 55 0 0 195 0 195 -55 0 -55 0 0 -195z"/>
<path d="M1220 475 l0 -195 55 0 55 0 0 195 0 195 -55 0 -55 0 0 -195z"/>
<path d="M1770 475 l0 -195 50 0 50 0 0 195 0 195 -50 0 -50 0 0 -195z"/>
<path d="M1970 511 c0 -88 4 -171 10 -185 23 -60 119 -71 180 -20 l30 26 0
-26 c0 -25 3 -26 50 -26 l50 0 0 195 0 195 -55 0 -54 0 -3 -141 -3 -142 -28
-21 c-21 -16 -32 -18 -45 -10 -15 10 -17 32 -20 163 l-3 151 -54 0 -55 0 0
-159z"/>
</g>
</svg>
